<?xml version="1.0" standalone="no"?>
<!DOCTYPE svg PUBLIC "-//W3C//DTD SVG 20010904//EN"
 "http://www.w3.org/TR/2001/REC-SVG-20010904/DTD/svg10.dtd">
<svg version="1.0" xmlns="http://www.w3.org/2000/svg"
 width="100.000000pt" height="100.000000pt" viewBox="0 0 100.000000 100.000000"
 preserveAspectRatio="xMidYMid meet">

<g transform="translate(0.000000,100.000000) scale(0.100000,-0.100000)"
fill="#000000" stroke="none">
<path d="M732 915 c0 -16 2 -22 5 -12 2 9 2 23 0 30 -3 6 -5 -1 -5 -18z"/>
<path d="M650 913 c0 -6 8 -17 18 -24 16 -13 16 -13 2 6 -8 11 -16 22 -17 24
-2 2 -3 0 -3 -6z"/>
<path d="M800 898 c-12 -22 -12 -22 6 -6 10 10 15 20 12 24 -4 3 -12 -5 -18
-18z"/>
<path d="M691 856 c-13 -7 -30 -24 -37 -37 -51 -92 72 -183 146 -109 43 43 32
118 -21 145 -34 18 -57 18 -88 1z m94 -31 c14 -13 25 -36 25 -50 0 -33 -42
-75 -75 -75 -14 0 -37 11 -50 25 -14 13 -25 36 -25 50 0 14 11 37 25 50 13 14
36 25 50 25 14 0 37 -11 50 -25z"/>
<path d="M591 857 c2 -1 13 -9 24 -17 19 -14 19 -14 6 3 -7 9 -18 17 -24 17
-6 0 -8 -1 -6 -3z"/>
<path d="M849 843 c-13 -15 -12 -15 9 -4 23 12 28 21 13 21 -5 0 -15 -7 -22
-17z"/>
<path d="M583 773 c9 -2 23 -2 30 0 6 3 -1 5 -18 5 -16 0 -22 -2 -12 -5z"/>
<path d="M863 773 c9 -2 23 -2 30 0 6 3 -1 5 -18 5 -16 0 -22 -2 -12 -5z"/>
<path d="M606 705 c-11 -8 -15 -15 -9 -15 6 0 16 7 23 15 16 19 11 19 -14 0z"/>
<path d="M852 704 c10 -10 20 -15 24 -12 3 4 -5 12 -18 18 -22 12 -22 12 -6
-6z"/>
<path d="M660 655 c-7 -9 -11 -17 -9 -20 3 -2 10 5 17 15 14 24 10 26 -8 5z"/>
<path d="M801 653 c7 -12 15 -20 18 -17 3 2 -3 12 -13 22 -17 16 -18 16 -5 -5z"/>
<path d="M732 635 c0 -16 2 -22 5 -12 2 9 2 23 0 30 -3 6 -5 -1 -5 -18z"/>
<path d="M258 559 c5 -80 19 -111 55 -123 22 -8 35 -7 57 6 l29 16 14 -37 c15
-36 37 -167 37 -215 0 -21 -3 -20 -40 15 -34 33 -39 42 -34 68 19 94 -105 119
-219 45 l-38 -25 23 -29 c13 -15 34 -47 47 -69 44 -72 120 -80 151 -14 18 40
29 41 62 6 30 -31 48 -72 48 -109 0 -42 17 -26 24 23 3 25 18 67 32 91 25 42
28 44 40 27 8 -10 14 -22 14 -27 0 -12 57 -38 85 -38 40 0 79 46 104 123 12
37 27 69 32 72 5 4 9 10 9 14 0 15 -73 42 -129 48 -126 13 -192 -49 -146 -137
10 -20 12 -31 4 -36 -6 -3 -19 -19 -28 -35 l-18 -30 -12 92 c-7 51 -20 115
-29 144 -16 45 -16 53 -3 77 31 54 -20 102 -121 114 l-54 6 4 -63z m132 12
c28 -20 37 -48 22 -63 -6 -6 -26 6 -57 37 -25 26 -49 44 -52 41 -3 -3 6 -15
20 -26 15 -12 26 -25 24 -30 -1 -5 7 -15 17 -23 25 -18 15 -44 -19 -53 -40
-10 -58 15 -63 87 l-5 61 44 -7 c24 -3 55 -15 69 -24z m325 -176 c33 -10 35
-13 15 -14 -14 -1 -49 -12 -77 -26 -52 -24 -53 -24 -63 -5 -6 11 -16 20 -22
20 -6 0 -4 -8 5 -18 22 -24 21 -28 -3 -52 -26 -26 -28 -25 -41 7 -31 82 66
128 186 88z m35 -33 c0 -32 -46 -135 -68 -153 -45 -35 -122 -3 -122 51 0 28
59 73 87 67 17 -3 23 -1 19 9 -3 7 6 17 22 23 34 12 62 13 62 3z m-410 -22
c21 -21 27 -55 11 -65 -15 -9 -78 25 -90 49 -11 20 -11 20 -7 -2 3 -18 1 -22
-11 -18 -8 3 -31 6 -51 6 -33 1 -35 2 -17 12 68 40 136 47 165 18z m-95 -49
c22 -5 29 -11 27 -26 -3 -16 -1 -17 12 -6 16 13 56 6 56 -10 0 -22 -31 -68
-50 -74 -32 -10 -57 3 -81 43 -13 20 -29 47 -37 60 -14 21 -13 22 14 21 16 -1
43 -4 59 -8z"/>
</g>
</svg>
